# xmcd CD database file
#
# Track frame offsets:
#	150
#	14867
#	34874
#	52154
#	62581
#	74995
#	93469
#	120523
#	139836
#	155576
#	172692
#	184847
#
# Disc length: 2779 seconds
#
# Revision: 0
# Processed by: cddbd v1.5.1PL2 Copyright (c) Steve Scherf et al.
# Submitted via: CDex 1.51
#
DISCID=b10ad90c
DTITLE=Lee Wolfe - Corners of the world
DYEAR=2003
DGENRE=Country
TTITLE0=Little Johnny Sunshine
TTITLE1=Reunion
TTITLE2=Prescott
TTITLE3=Canceled Ticket
TTITLE4=Howlin'
TTITLE5=When your heart says it's what to do
TTITLE6=Louisiana
TTITLE7=Allegheny River Blues
TTITLE8=Sara
TTITLE9=More than a millionaire
TTITLE10=All day blues
TTITLE11=Corners of the world
EXTD=YEAR: 2003
EXTT0=
EXTT1=
EXTT2=
EXTT3=
EXTT4=
EXTT5=
EXTT6=
EXTT7=
EXTT8=
EXTT9=
EXTT10=
EXTT11=
PLAYORDER=
